<svg xmlns="http://www.w3.org/2000/svg" viewBox="0 0 450.02 312.89" xmlns:v="https://vecta.io/nano"><path d="M422.84 189.38a10.65 10.65 0 0 1-3.9-5.63 81.05 81.05 0 0 0-97.32-56 10.82 10.82 0 0 1-11.57-4.4 89.42 89.42 0 0 0-162.72 42 10.83 10.83 0 0 1-6.18 8.8l-3.18 1.65a10.93 10.93 0 0 1-2.9 1.1 69.49 69.49 0 0 0-38.63 23.9 67.72 67.72 0 0 0-15.36 43.28c0 37.94 31.05 68.83 69.22 68.83h230.5C419 312.9 450 282 450 244.06a68.44 68.44 0 0 0-27.17-54.7zm-341.4-53.83a53.64 53.64 0 0 0 14 36.28 91.06 91.06 0 0 1 31.05-15.23 111.31 111.31 0 0 1 34.84-64.7l2.72-2.35a53.64 53.64 0 0 0-28.47-8.1 54.18 54.18 0 0 0-54.14 54.1zm54.12-83.17a10.87 10.87 0 0 0 10.86-10.88V10.9a10.88 10.88 0 1 0-21.76 0v30.62a10.91 10.91 0 0 0 10.9 10.87zm-56.42 7.16a10.84 10.84 0 0 0 9.4 5.46A11.14 11.14 0 0 0 94 63.54a10.89 10.89 0 0 0 4-14.87l-15.4-26.5A10.85 10.85 0 1 0 63.81 33l15.32 26.5zm-57 23.12L48.64 98a10.67 10.67 0 0 0 5.48 1.46 10.86 10.86 0 0 0 5.42-20.27h0L33 63.82a10.88 10.88 0 1 0-10.88 18.84zM10.9 146.43h30.58a10.89 10.89 0 0 0 0-21.78H10.9a10.89 10.89 0 1 0 0 21.78zm52.64 30.7a11 11 0 0 0-14.9-4l-26.5 15.3a10.87 10.87 0 0 0 5.42 20.29 10.45 10.45 0 0 0 5.44-1.47L59.5 192a10.83 10.83 0 0 0 4.08-14.78v-.07zM177.1 63.53a11.11 11.11 0 0 0 5.43 1.47 10.83 10.83 0 0 0 9.47-5.47L207.26 33a10.83 10.83 0 0 0-3.87-14.83h-.06a10.92 10.92 0 0 0-14.9 4l-15.27 26.5a10.85 10.85 0 0 0 3.93 14.88z" fill="#fff"/></svg>